<?xml version="1.0" standalone="no"?>
<!DOCTYPE svg PUBLIC "-//W3C//DTD SVG 1.1//EN" "http://www.w3.org/Graphics/SVG/1.1/DTD/svg11.dtd" >
<svg xmlns="http://www.w3.org/2000/svg" xmlns:xlink="http://www.w3.org/1999/xlink" version="1.1">
<metadata>
Created by FontForge 20170731 at Thu Jun 23 15:44:24 2022
 By Aleksey,,,
Copyright 2022 The AU School Handwriting Fonts Project Authors (https://github.com/MezMerrit/AU-School-Handwriting-Fonts)
</metadata>
<defs>
<font id="EduSABeginner-Regular" horiz-adv-x="506" vert-adv-y="1000" >
  <font-face 
    font-family="Edu SA Beginner"
    font-weight="400"
    font-stretch="normal"
    units-per-em="1000"
    panose-1="0 0 0 0 0 0 0 0 0 0"
    ascent="800"
    descent="-200"
    x-height="416"
    cap-height="772"
    bbox="-249.083 -361.714 958 890"
    underline-thickness="50"
    underline-position="-175"
    unicode-range="U+0020-2265"
  />
<missing-glyph horiz-adv-x="684" vert-adv-y="0" 
d="M541 0h-471q-16 0 -24 9.5t-7 22.5l82 768q2 14 10.5 23t24.5 9h470q13 0 19.5 -9t4.5 -23l-82 -768q-2 -13 -9.5 -22.5t-17.5 -9.5zM102 53h409l76 725h-408z" />
    <glyph glyph-name=".notdef" horiz-adv-x="684" vert-adv-y="0" 
d="M541 0h-471q-16 0 -24 9.5t-7 22.5l82 768q2 14 10.5 23t24.5 9h470q13 0 19.5 -9t4.5 -23l-82 -768q-2 -13 -9.5 -22.5t-17.5 -9.5zM102 53h409l76 725h-408z" />
    <glyph glyph-name=".null" horiz-adv-x="0" vert-adv-y="0" 
 />
    <glyph glyph-name="nonmarkingreturn" horiz-adv-x="333" 
 />
    <glyph glyph-name="space" unicode=" " horiz-adv-x="285" vert-adv-y="0" 
 />
    <glyph glyph-name="exclam" unicode="!" horiz-adv-x="270" vert-adv-y="0" 
d="M116 208q-10 1 -19 9t-8 23l55 507q2 13 13 19t22 6t19 -6t6 -19l-54 -507q-2 -17 -12.5 -25t-21.5 -7zM99 -1q-21 0 -34.5 14t-13.5 35q0 20 13.5 33t34.5 13q20 0 33.5 -13t13.5 -33q0 -21 -13.5 -35t-33.5 -14z" />
    <glyph glyph-name="quotedbl" unicode="&#x22;" horiz-adv-x="347" vert-adv-y="0" 
d="M131 594q-12 0 -21 8.5t-8 24.5l12 114q2 16 12.5 23.5t20.5 7.5q12 0 21.5 -9t7.5 -26l-13 -114q-2 -14 -11.5 -21.5t-20.5 -7.5zM260 594q-12 0 -21.5 8.5t-8.5 24.5l14 119q2 13 11 19.5t19 6.5q13 0 22 -9t8 -26l-11 -112q-1 -17 -11.5 -24t-21.5 -7z" />
    <glyph glyph-name="numbersign" unicode="#" horiz-adv-x="865" vert-adv-y="0" 
d="M236 0q-10 0 -18 8.5t-7 24.5l66 612q2 15 12 22.5t21 7.5q12 0 20.5 -8t6.5 -22l-65 -612q-3 -17 -13.5 -25.5t-22.5 -7.5zM543 0q-12 -1 -20.5 8t-6.5 25l65 612q2 15 12.5 22.5t21.5 7.5q11 -1 20 -8.5t7 -21.5l-66 -612q-1 -16 -11.5 -24.5t-21.5 -8.5zM90 175
q-15 0 -23.5 8.5t-9.5 18.5t6.5 18t23.5 8h647q17 0 24 -8t8 -18t-6 -18.5t-22 -8.5h-648zM120 456q-16 0 -24.5 8t-8.5 18q-1 10 6 19t23 9h647q16 0 24.5 -9t9.5 -19q0 -10 -7 -18t-24 -8h-646z" />
    <glyph glyph-name="dollar" unicode="$" horiz-adv-x="561" vert-adv-y="0" 
d="M201 -5q-61 0 -100.5 28t-50.5 74q-4 14 -1 26.5t16 16.5t24.5 -1.5t15.5 -20.5q7 -28 33 -48t82 -20q42 0 81.5 10.5t66.5 34t31 61.5q4 35 -11 59t-48.5 46.5t-86.5 52.5q-47 27 -85.5 54t-60 61.5t-17.5 81.5q5 44 33 81.5t79.5 60t127.5 22.5q70 0 110.5 -29
t54.5 -71q6 -16 3.5 -28.5t-14.5 -16.5t-23 1t-15 17q-12 32 -40 52t-73 20q-85 0 -133 -31.5t-53 -82.5q-3 -34 14.5 -57t53 -44t83.5 -49q48 -27 85.5 -57.5t58 -67.5t15.5 -84q-5 -52 -40 -86t-91 -50t-125 -16zM234 -82q-13 0 -22.5 8t-8.5 24l81 764q2 14 10 19.5
t18 5.5q13 0 23 -8.5t8 -22.5l-80 -764q-2 -13 -10.5 -19.5t-18.5 -6.5z" />
    <glyph glyph-name="percent" unicode="%" horiz-adv-x="830" vert-adv-y="0" 
d="M144 0q-12 0 -20 7.5t-8.5 19.5t9.5 25l511 693q8 11 16 19t19 8q13 0 20.5 -7.5t8 -19t-9.5 -25.5l-511 -693q-8 -11 -16 -19t-19 -8zM208 407q-55 0 -86 32t-31 83q0 49 17 94t46 80t66 55.5t78 20.5q55 0 86 -31.5t31 -82.5q0 -49 -17 -94.5t-46 -80.5t-66 -55.5
t-78 -20.5zM216 461q34 0 65.5 26t52.5 68.5t21 90.5q0 29 -16 51t-49 22q-37 0 -68.5 -28t-51 -70.5t-19.5 -87.5q0 -29 16 -50.5t49 -21.5zM530 0q-55 0 -86 31.5t-31 82.5q0 50 17 95t46 80t66 55.5t78 20.5q55 0 86 -32t31 -82q0 -49 -17 -94.5t-46 -80.5t-66 -55.5
t-78 -20.5zM538 53q34 0 65.5 26t52.5 68.5t21 91.5q0 29 -16 50.5t-49 21.5q-37 0 -68.5 -27.5t-51 -70t-19.5 -87.5q0 -29 16 -51t49 -22z" />
    <glyph glyph-name="ampersand" unicode="&#x26;" horiz-adv-x="658" vert-adv-y="0" 
d="M230 -1q-54 0 -93 22.5t-60 65t-21 100.5q0 52 18.5 95.5t59.5 83.5t107 80l25 15q88 54 135.5 100.5t47.5 87.5q0 29 -25.5 49t-63.5 20q-40 0 -71.5 -13t-49.5 -35.5t-18 -51.5q0 -21 14 -52.5t32 -62t29 -48.5l231 -390q12 -19 13.5 -36t-11.5 -24q-9 -5 -18 -3.5
t-16.5 8t-13.5 16.5l-235 393q-13 22 -33 55.5t-35.5 71.5t-15.5 72q0 44 26.5 79t73 55t105.5 20q61 0 101 -31.5t40 -79.5q0 -39 -19.5 -77t-60.5 -76t-105 -77l-53 -32q-82 -49 -118.5 -98.5t-36.5 -111.5t31 -99t84 -37q74 0 140 60.5t142 196.5q9 15 21 19.5t25 -3.5
q14 -9 13 -22.5t-10 -29.5q-56 -98 -109 -158.5t-107 -88.5t-115 -28z" />
    <glyph glyph-name="quotesingle" unicode="'" horiz-adv-x="216" vert-adv-y="0" 
d="M131 594q-13 0 -22 8.5t-8 24.5l13 119q2 13 11.5 19.5t19.5 6.5q13 0 22 -9t8 -26l-12 -118q-1 -13 -11 -19t-21 -6z" />
    <glyph glyph-name="parenleft" unicode="(" horiz-adv-x="421" vert-adv-y="0" 
d="M216 -335q-97 167 -132 309.5t-22 263.5q6 58 27 124t55 134.5t79.5 134t99.5 121.5q17 16 31.5 19.5t22.5 -4.5q6 -6 4 -17.5t-16 -28.5q-65 -69 -117 -154t-85 -170.5t-41 -158.5q-13 -121 19 -256.5t116 -290.5q8 -15 7.5 -27t-9.5 -17q-10 -6 -20 -1t-19 19z" />
    <glyph glyph-name="parenright" unicode=")" horiz-adv-x="421" vert-adv-y="0" 
d="M5 -352q-7 7 -4.5 19t16.5 28q65 69 117 154t85 170.5t40 158.5q14 122 -18.5 257.5t-115.5 289.5q-8 15 -8 27t9 17q10 6 20 1t19 -19q66 -112 102.5 -212t49 -190t3.5 -171q-8 -77 -42.5 -168t-90.5 -181t-129 -165q-16 -16 -30.5 -19.5t-22.5 3.5z" />
    <glyph glyph-name="asterisk" unicode="*" horiz-adv-x="359" vert-adv-y="0" 
d="M102 583q-6 8 -3 19t17 21l155 99q14 8 24 6.5t15 -7.5q5 -8 2.5 -19t-16.5 -20l-155 -100q-14 -8 -24 -7t-15 8zM299 584q-6 -7 -16.5 -7.5t-22.5 7.5l-134 100q-13 9 -14.5 19.5t4.5 16.5q5 7 15 8t21 -8l135 -101q12 -9 14 -18.5t-2 -16.5zM191 532q-7 2 -13 9.5
t-5 22.5l18 176q2 17 11 24.5t18 7.5q8 0 14 -7.5t4 -24.5l-18 -176q-2 -16 -11 -24.5t-18 -7.5z" />
    <glyph glyph-name="plus" unicode="+" vert-adv-y="0" 
d="M233 105q-10 1 -17 11t-6 27l29 262q2 14 11.5 20t17.5 5q11 -1 18 -10.5t5 -26.5l-30 -262q-1 -14 -10 -20t-18 -6zM115 244q-16 0 -24 8.5t-8 18.5t8 18t24 8h270q16 0 24 -8t8 -18t-8 -18.5t-24 -8.5h-270z" />
    <glyph glyph-name="comma" unicode="," horiz-adv-x="215" vert-adv-y="0" 
d="M52 -120q-7 1 -13 5.5t-9.5 12t-2.5 18.5l12 117q2 15 11.5 21.5t21.5 4.5q8 0 14.5 -4.5t10 -12.5t2.5 -21l-12 -111q-2 -18 -13 -24.5t-22 -5.5z" />
    <glyph glyph-name="hyphen" unicode="-" horiz-adv-x="402" vert-adv-y="0" 
d="M95 210q-16 0 -25 7.5t-9 20.5t10 20t26 7h176q17 0 26 -7t9 -20t-10 -20.5t-27 -7.5h-176z" />
    <glyph glyph-name="period" unicode="." horiz-adv-x="249" vert-adv-y="0" 
d="M88 -1q-20 0 -34 14t-14 35q0 20 14 33t34 13t33.5 -13t13.5 -33q0 -21 -13.5 -35t-33.5 -14z" />
    <glyph glyph-name="slash" unicode="/" horiz-adv-x="326" vert-adv-y="0" 
d="M17 -46q-14 0 -24.5 10t-4.5 26l270 755q5 15 14 21t19 6q9 0 17 -5t11.5 -13.5t-1.5 -21.5l-269 -755q-4 -12 -13 -17.5t-19 -5.5z" />
    <glyph glyph-name="zero" unicode="0" horiz-adv-x="555" vert-adv-y="0" 
d="M240 -1q-75 0 -121.5 41.5t-65 110t-10.5 148.5t25 148t47.5 119t76 79.5t110.5 28.5q67 0 108 -31t62 -79.5t26 -104t0 -103.5q-11 -105 -43 -185.5t-85.5 -126t-129.5 -45.5zM241 53q47 0 81 24.5t57.5 66.5t37.5 94t20 107q5 45 3 93t-15.5 89t-43 66.5t-79.5 25.5
q-48 0 -81 -21.5t-54.5 -57t-34 -79t-19.5 -88t-11 -82.5q-11 -115 29 -176.5t110 -61.5z" />
    <glyph glyph-name="one" unicode="1" horiz-adv-x="216" vert-adv-y="0" 
d="M68 0q-12 0 -21 8.5t-8 24.5l66 612q2 16 11.5 23t21.5 7q11 0 20 -7.5t7 -22.5l-66 -618q-2 -15 -11 -21t-20 -6z" />
    <glyph glyph-name="two" unicode="2" horiz-adv-x="493" vert-adv-y="0" 
d="M394 30q0 -11 -5 -20.5t-23 -9.5h-323q-11 0 -18.5 7t-8.5 17t5 18q26 33 60.5 75t71 86t69 83.5t56.5 68t32 39.5q20 25 38 54t30 57t12 51q0 29 -25 44t-63 15q-42 0 -88.5 -16t-76.5 -42q-22 -18 -36 -17.5t-21 8.5q-8 9 -8.5 21t18.5 29q25 21 59.5 38.5t73 28
t75.5 10.5q44 0 78 -16.5t53.5 -45t19.5 -63.5q0 -37 -22.5 -83.5t-66.5 -102.5q-15 -19 -47.5 -58.5t-74 -88t-82 -97.5t-72.5 -89l-7 28h285q18 0 25 -9t7 -20z" />
    <glyph glyph-name="three" unicode="3" horiz-adv-x="514" vert-adv-y="0" 
d="M24 82q7 11 19 11t25 -9q20 -14 51.5 -22.5t65.5 -8.5q84 0 136 34.5t58 94.5q5 47 -12.5 78t-50.5 48.5t-77 25t-92 7.5q-10 0 -16.5 7.5t-6.5 17.5q0 11 6.5 18.5t16.5 7.5q57 0 109 11t87 38.5t41 77.5q4 38 -13 60t-46.5 31.5t-65.5 9.5t-72 -10.5t-56 -20.5
q-13 -6 -26 -5.5t-19 10.5q-6 9 -2 20.5t15 18.5q21 14 67 28t95 14q46 0 90 -17t71 -51.5t21 -88.5q-4 -41 -24.5 -72.5t-57.5 -52t-93 -28.5l2 9q58 -10 97.5 -36t57.5 -65.5t13 -89.5q-9 -85 -76 -134.5t-174 -49.5q-47 0 -88 11t-64 30q-12 10 -15.5 21t3.5 21z" />
    <glyph glyph-name="four" unicode="4" horiz-adv-x="492" vert-adv-y="0" 
d="M228 0q-11 0 -20 9.5t-7 27.5l43 397q2 15 11.5 20.5t21.5 5.5q14 0 21 -9.5t5 -25.5l-43 -394q-1 -18 -11 -24.5t-21 -6.5zM63 233q-10 0 -17.5 8.5t-6.5 18.5l42 386q2 17 12 23t20 6q11 0 20 -8.5t7 -24.5l-41 -391l-32 35h324q14 0 23.5 -7.5t9.5 -18.5
q0 -10 -7 -18.5t-21 -8.5h-333z" />
    <glyph glyph-name="five" unicode="5" horiz-adv-x="481" vert-adv-y="0" 
d="M163 -1q-35 0 -70.5 13t-55.5 32q-17 17 -17 30q0 12 9 20.5t20 8.5q7 0 12.5 -5t9.5 -10q17 -15 47.5 -25t60.5 -10q50 0 89 23t61.5 65t22.5 98q0 57 -38.5 89.5t-104.5 32.5q-22 0 -47 -5t-66 -16q-13 -4 -23.5 5.5t-9.5 22.5l30 275q3 32 38 32h261q18 0 25.5 -8.5
t7.5 -19.5q0 -10 -7 -18t-25 -8h-279l39 36l-32 -286l-31 20q30 9 51 14.5t39 8t37 2.5q90 0 142 -43t52 -120q0 -81 -30 -138t-85.5 -86.5t-132.5 -29.5z" />
    <glyph glyph-name="six" unicode="6" horiz-adv-x="474" vert-adv-y="0" 
d="M202 -1q-43 0 -80.5 24t-60.5 66.5t-23 95.5q0 152 30.5 261.5t87.5 169t135 59.5q37 0 70 -14t55 -40q7 -7 10 -16.5t-7 -21.5q-10 -11 -23 -9t-21 10q-15 17 -40 27t-55 10q-56 1 -97 -51.5t-63.5 -150t-22.5 -232.5q0 -58 32.5 -96t81.5 -38q37 0 66 24t47 63.5
t19 85.5q4 68 -23.5 103.5t-78.5 35.5q-41 0 -73.5 -23t-51.5 -63.5t-19 -91.5l-16 62q0 49 21.5 88t59.5 62t86 23q71 0 114 -47.5t41 -141.5q-2 -63 -27.5 -116.5t-69.5 -85.5t-104 -32z" />
    <glyph glyph-name="seven" unicode="7" horiz-adv-x="450" vert-adv-y="0" 
d="M86 0q-8 0 -14.5 6t-7.5 18.5t8 30.5l292 598l19 -32h-269q-16 0 -24 8.5t-9 19.5q-1 10 6 18t23 8h287q17 0 23.5 -12.5t-1.5 -29.5l-292 -602q-8 -16 -19 -23.5t-22 -7.5z" />
    <glyph glyph-name="eight" unicode="8" horiz-adv-x="451" vert-adv-y="0" 
d="M197 53q52 0 83.5 30t31.5 94q0 27 -19 56.5t-44.5 58t-47.5 49.5l-18 18q-12 12 -31 30.5t-38 41t-32 48.5t-13 53q0 51 27 82.5t68 46t84 14.5q40 0 78 -10.5t62.5 -37t24.5 -76.5q0 -36 -28.5 -70.5t-72 -68t-89.5 -66.5q-45 -33 -74 -60.5t-42.5 -56t-13.5 -66.5
q0 -57 30 -83.5t74 -26.5zM194 -1q-34 0 -63.5 11.5t-51.5 32.5t-34 50.5t-12 64.5q0 45 14.5 81t48 70.5t91.5 76.5q42 31 80 59t62.5 54.5t24.5 52.5q0 32 -15 46t-40 18t-54 4q-26 0 -53.5 -8t-45.5 -26t-18 -50q0 -27 16 -52t36.5 -46t34.5 -35l36 -35q34 -32 61 -65
t43.5 -64.5t16.5 -61.5q0 -54 -23 -94t-63 -62t-92 -22z" />
    <glyph glyph-name="nine" unicode="9" horiz-adv-x="422" vert-adv-y="0" 
d="M299 0q-12 0 -21.5 8.5t-7.5 22.5l65 618q2 13 11 19.5t19 6.5q12 0 21 -8t7 -24l-65 -618q-1 -13 -10 -19t-19 -6zM196 259q-39 0 -66 18.5t-43.5 49t-22.5 69t-2 77.5q7 68 32.5 113t63.5 67t82 22q35 0 64 -11t45 -28l-6 -55q-7 12 -22.5 21t-36.5 13.5t-45 4.5
q-43 0 -76.5 -37.5t-41.5 -113.5q-4 -38 2.5 -74t24.5 -58.5t49 -22.5q24 0 44.5 18.5t36.5 48t28 62.5t19 62.5t9 48.5h7l-21 -193q-14 -28 -33 -51t-42 -37t-49 -14z" />
    <glyph glyph-name="colon" unicode=":" horiz-adv-x="252" vert-adv-y="0" 
d="M88 -1q-20 0 -34 14t-14 35q0 20 14 33t34 13t33.5 -13t13.5 -33q0 -21 -13.5 -35t-33.5 -14zM121 326q-20 0 -33.5 14t-13.5 34t13.5 33.5t33.5 13.5q21 0 34.5 -13.5t13.5 -33.5t-13.5 -34t-34.5 -14z" />
    <glyph glyph-name="semicolon" unicode=";" horiz-adv-x="252" vert-adv-y="0" 
d="M74 -121q-8 1 -15 5t-11 12.5t-3 19.5l12 117q2 15 11.5 21.5t21.5 4.5q8 0 14.5 -4.5t10.5 -11.5t3 -18l-15 -118q-1 -15 -10 -22t-19 -6zM121 326q-20 0 -33.5 14t-13.5 34t13.5 33.5t33.5 13.5q21 0 34.5 -13.5t13.5 -33.5t-13.5 -34t-34.5 -14z" />
    <glyph glyph-name="less" unicode="&#x3c;" vert-adv-y="0" 
d="M318 121l-212 149q-7 5 -9.5 10.5t-2.5 11.5q0 8 4.5 14t11.5 10l264 121q17 8 27 1.5t12 -15.5q3 -10 -2 -19.5t-23 -17.5l-247 -114l4 36l208 -145q14 -10 15.5 -22t-6.5 -22q-7 -8 -18.5 -8t-25.5 10z" />
    <glyph glyph-name="equal" unicode="=" vert-adv-y="0" 
d="M102 153q-16 0 -24 8t-8 18t8 19t24 9h270q16 0 24 -8t8 -18t-8 -19t-24 -9h-270zM122 333q-16 0 -24 8t-8 18t8 18.5t24 8.5h270q16 0 24 -8t8 -18t-8 -18.5t-24 -8.5h-270z" />
    <glyph glyph-name="greater" unicode="&#x3e;" vert-adv-y="0" 
d="M131 114q-17 -8 -27 -1.5t-13 15.5q-2 11 3 20t22 17l248 114l-4 -35l-208 144q-13 11 -15 22.5t6 21.5q8 8 19.5 8t24.5 -10l212 -148q8 -4 10 -10.5t2 -12.5q0 -7 -4.5 -13.5t-12.5 -10.5z" />
    <glyph glyph-name="question" unicode="?" horiz-adv-x="555" vert-adv-y="0" 
d="M209 207q-10 0 -18.5 9.5t-7.5 22.5l13 120q1 10 9 17t18 7q46 0 84.5 13t67.5 38.5t45 64t16 88.5q0 61 -35.5 96t-97.5 35q-51 0 -82 -21.5t-47 -54.5t-20 -67q-1 -19 -10.5 -26t-22.5 -7q-10 0 -18 10t-7 29q6 57 31 100t69 67t107 24q60 1 103 -21.5t66 -63.5t23 -99
q0 -83 -32.5 -138.5t-87 -85.5t-122.5 -35l-9 -89q-3 -19 -13 -26t-22 -7zM195 -1q-20 0 -34 14t-14 35q0 20 14 33t34 13t33.5 -13t13.5 -33q0 -21 -13.5 -35t-33.5 -14z" />
    <glyph glyph-name="at" unicode="@" horiz-adv-x="754" vert-adv-y="0" 
d="M297 62q-60 0 -85.5 56t-2.5 148q16 64 46.5 112.5t72 76t88.5 27.5q40 0 59 -25t20 -71t-15 -108q-16 -64 -40.5 -112.5t-59.5 -76t-83 -27.5zM310 115q43 0 79 49t55 125q17 69 5.5 104.5t-46.5 35.5q-43 0 -79.5 -49t-55.5 -125q-16 -69 -4.5 -104.5t46.5 -35.5z
M292 -95q-71 0 -125.5 27t-88.5 75.5t-43.5 114t9.5 143.5q28 111 86 192t138 124.5t173 43.5q70 0 123.5 -24.5t86.5 -68.5t43 -103.5t-7 -130.5q-15 -63 -48.5 -116.5t-73.5 -86.5t-78 -33q-30 0 -47.5 20.5t-20 59t10.5 91.5l55 215q5 16 14.5 23t25.5 7q15 0 19.5 -10
t0.5 -24l-57 -224q-8 -32 -10 -55.5t2 -36.5t13 -13q24 0 51 26t49.5 68t33.5 88q19 80 0.5 142t-67.5 97t-122 35q-77 0 -144 -37.5t-116.5 -108.5t-74.5 -171q-20 -81 -2 -148.5t67 -107.5t121 -40q31 0 66 7.5t62 15.5q11 4 25 1.5t18 -16.5q2 -11 -2.5 -21.5
t-22.5 -15.5q-27 -7 -66.5 -15.5t-76.5 -8.5z" />
    <glyph glyph-name="A" unicode="A" horiz-adv-x="524" vert-adv-y="0" 
d="M-8 0q-13 4 -17 16t5 32l312 696q7 14 14 21t22 7q17 0 23 -8t8 -21l108 -703q2 -16 -3 -27t-22 -13q-19 -1 -24.5 9t-7.5 24l-99 680l19 -3l-296 -681q-6 -14 -17 -23.5t-25 -5.5zM169 388l22 54h190l10 -54h-222z" />
    <glyph glyph-name="B" unicode="B" horiz-adv-x="598" vert-adv-y="0" 
d="M68 0q-13 0 -21.5 11t-7.5 26l74 703q2 17 10 24t23 8q129 8 216.5 -14.5t129.5 -69.5t33 -113q-4 -29 -13.5 -56t-33 -50t-66.5 -41t-112.5 -30t-173.5 -17l5 43q105 4 169.5 18t99 35t48.5 47.5t18 55.5q5 41 -27.5 75t-99.5 52.5t-169 11.5l-69 -664q169 2 263 48.5
t102 121.5q5 52 -35.5 88.5t-120 52.5t-190.5 5l5 52q131 10 223.5 -11.5t138.5 -71t38 -124.5q-7 -67 -64 -115.5t-157 -74.5t-236 -26z" />
    <glyph glyph-name="C" unicode="C" horiz-adv-x="570" vert-adv-y="0" 
d="M246 -6q-82 0 -132.5 50t-65 142t9.5 218q22 116 65.5 200t103 129t129.5 45q47 0 80 -11.5t56.5 -28t39.5 -31.5q8 -7 12 -19t-7 -26q-11 -13 -25.5 -10t-23.5 10q-12 9 -31.5 23.5t-43.5 26t-53 11.5q-57 0 -105 -40t-83.5 -113t-53.5 -173q-20 -107 -11.5 -185.5
t42.5 -120.5t92 -42q48 0 85.5 19.5t64 49.5t41.5 59q11 20 22 29t26 1t14.5 -21.5t-12.5 -36.5q-18 -37 -53 -72.5t-82 -59t-101 -23.5z" />
    <glyph glyph-name="D" unicode="D" horiz-adv-x="590" vert-adv-y="0" 
d="M69 0q-16 0 -23.5 9.5t-6.5 22.5l75 708q2 14 8.5 23t26.5 9h66q112 0 188.5 -46t112 -128.5t22.5 -193.5q-14 -126 -62 -216.5t-130.5 -139t-200.5 -48.5h-76zM101 55h40q155 0 237.5 91.5t101.5 262.5q10 90 -18 160t-89 109.5t-150 39.5h-52z" />
    <glyph glyph-name="E" unicode="E" horiz-adv-x="567" vert-adv-y="0" 
d="M69 0q-16 0 -23.5 9.5t-6.5 22.5l75 708q2 14 8.5 23t26.5 9h369q18 0 25 -8t7 -19q0 -10 -7 -18.5t-25 -8.5h-347l-69 -663h340q18 0 25 -7.5t7 -18.5t-7 -20t-25 -9h-373zM108 388l6 55h341q18 0 25.5 -8t7.5 -19q0 -10 -9 -19t-26 -9h-345z" />
    <glyph glyph-name="F" unicode="F" horiz-adv-x="567" vert-adv-y="0" 
d="M69 0q-16 0 -23.5 9.5t-6.5 22.5l75 708q2 14 8.5 23t26.5 9h369q18 0 25 -8t7 -19q0 -10 -7 -18.5t-25 -8.5h-347l-72 -688q-1 -9 -5.5 -19.5t-24.5 -10.5zM109 388l6 55h329q18 0 26 -8t8 -19q0 -10 -8 -19t-26 -9h-335z" />
    <glyph glyph-name="G" unicode="G" horiz-adv-x="604" vert-adv-y="0" 
d="M219 -5q-74 0 -118 50t-55.5 142t11.5 218q22 116 68 199.5t111.5 128.5t143.5 45q41 0 76.5 -14.5t63 -35.5t42.5 -40q9 -12 10.5 -23t-9.5 -21q-10 -9 -22 -5t-22 14q-13 15 -31.5 31t-46 27.5t-69.5 11.5q-62 0 -114 -39.5t-88.5 -112.5t-54.5 -174q-26 -161 4.5 -254
t109.5 -93q28 0 60.5 21.5t67 63.5t67.5 105.5t61 147.5q2 6 4 11t5.5 9t8.5 6t13 2v-73q-28 -86 -61.5 -151.5t-70.5 -109t-78.5 -65.5t-86.5 -22zM479 0q-18 1 -22.5 12.5t-2.5 30.5l27 265l35 108q15 0 25 -8.5t8 -23.5l-36 -341q-1 -18 -7.5 -31t-26.5 -12z" />
    <glyph glyph-name="H" unicode="H" horiz-adv-x="615" vert-adv-y="0" 
d="M69 0q-16 0 -23.5 9.5t-6.5 22.5l75 708q2 14 10 23t25 9q15 0 20.5 -10t3.5 -27l-74 -705q-1 -9 -5.5 -19.5t-24.5 -10.5zM107 388l6 55h400l-6 -55h-400zM468 0q-20 0 -25.5 11t-4.5 21l76 714q2 9 8 17.5t22 8.5q18 0 25 -9.5t5 -24.5l-76 -712q-1 -8 -7 -17t-23 -9z
" />
    <glyph glyph-name="I" unicode="I" horiz-adv-x="323" vert-adv-y="0" 
d="M90 0l82 772h61l-83 -772h-60zM72 0q-17 0 -25 8.5t-8 18.5q0 11 6 19.5t24 8.5h106q17 0 24.5 -8.5t7.5 -19.5q0 -10 -5.5 -18.5t-23.5 -8.5h-106zM147 718q-17 0 -25 8.5t-8 18.5q0 11 6 19t24 8h105q18 0 25.5 -8t7.5 -19q0 -10 -5.5 -18.5t-23.5 -8.5h-106z" />
    <glyph glyph-name="J" unicode="J" horiz-adv-x="510" vert-adv-y="0" 
d="M168 -6q-49 0 -85.5 25t-62.5 58q-7 11 -8.5 23t8.5 22t22 7.5t22 -15.5q18 -22 42.5 -43.5t61.5 -21.5q39 0 66.5 20t45 63t24.5 112l54 528h59l-53 -528q-13 -132 -60 -191t-136 -59zM335 718q-18 0 -25.5 8.5t-7.5 18.5q0 11 6 19t23 8h106q18 0 25 -8t7 -19
q0 -10 -5 -18.5t-23 -8.5h-106z" />
    <glyph glyph-name="K" unicode="K" horiz-adv-x="555" vert-adv-y="0" 
d="M470 0q-11 0 -20 7t-16 16l-312 390l2 15l388 329q11 9 19 12t15 3q12 0 18.5 -5.5t6.5 -16.5q0 -7 -5.5 -15.5t-16.5 -19.5l-384 -321l6 50l317 -394q10 -12 10 -23t-8 -19t-20 -8zM69 0q-16 0 -23.5 12.5t-6.5 25.5l75 702q2 14 9.5 23t25.5 9q17 0 21.5 -10t2.5 -27
l-74 -698q-1 -12 -6 -24.5t-24 -12.5z" />
    <glyph glyph-name="L" unicode="L" horiz-adv-x="513" vert-adv-y="0" 
d="M69 0q-16 0 -23.5 9.5t-6.5 22.5l75 708q2 14 9.5 23t25.5 9q17 0 21.5 -10t2.5 -27l-71 -680h323q17 0 24.5 -7t7.5 -19t-7 -20.5t-24 -8.5h-357z" />
    <glyph glyph-name="M" unicode="M" horiz-adv-x="967" vert-adv-y="0" 
d="M-1 0q-11 0 -18 6t-7.5 16.5t5.5 22.5l339 698q7 12 14 20.5t22 8.5q16 0 23 -7.5t8 -14.5l76 -663l-19 3l316 651q5 10 12 20.5t20 10.5q25 0 31 -9.5t7 -23.5l82 -708q2 -13 -5.5 -22t-21.5 -9q-19 0 -25 10t-7 19l-76 654l19 -3l-315 -651q-4 -7 -12 -18t-25 -11
q-20 0 -26 10t-7 19l-75 652l19 -4l-316 -647q-8 -16 -18 -23t-20 -7z" />
    <glyph glyph-name="N" unicode="N" horiz-adv-x="614" vert-adv-y="0" 
d="M69 0q-16 0 -23.5 9.5t-6.5 22.5l75 708q2 14 8 23t25 9q17 0 25.5 -6.5t12.5 -17.5l284 -654l-25 -5l69 651q2 14 9.5 23t25.5 9q17 0 22 -10t3 -27l-75 -705q-2 -14 -6.5 -22t-21.5 -8q-23 0 -33 21l-293 675l25 5l-70 -668q-1 -10 -5.5 -21.5t-24.5 -11.5z" />
    <glyph glyph-name="O" unicode="O" horiz-adv-x="575" vert-adv-y="0" 
d="M248 -6q-68 0 -116.5 47.5t-71 129t-11.5 184.5q14 139 49 233t91.5 142t132.5 48q69 0 118 -48.5t71.5 -131t11.5 -186.5q-14 -138 -49.5 -231t-91.5 -140t-134 -47zM249 49q59 0 102.5 42t71.5 124.5t40 205.5q9 85 -7 153t-50.5 108.5t-83.5 40.5q-59 0 -102.5 -42.5
t-71 -126.5t-40.5 -207q-8 -85 7.5 -152.5t50.5 -106.5t83 -39z" />
    <glyph glyph-name="P" unicode="P" horiz-adv-x="571" vert-adv-y="0" 
d="M69 0q-16 0 -23.5 12t-6.5 25l75 703q2 15 9.5 23.5t25.5 8.5q123 0 212 -23t135.5 -69.5t39.5 -118.5q-5 -49 -29 -84.5t-63.5 -60.5t-92 -39.5t-115 -21t-131.5 -6.5l4 54q78 0 143.5 8t113.5 27t76.5 50.5t33.5 78.5q8 71 -74 110t-231 41l-72 -684q-1 -8 -5.5 -21
t-24.5 -13z" />
    <glyph glyph-name="Q" unicode="Q" horiz-adv-x="575" vert-adv-y="0" 
d="M248 -6q-68 0 -116.5 47.5t-71 129t-11.5 184.5q14 139 49 233t91.5 142t132.5 48q69 0 118 -48.5t71.5 -131t11.5 -186.5q-14 -138 -49.5 -231t-91.5 -140t-134 -47zM249 49q59 0 102.5 42t71.5 124.5t40 205.5q9 85 -7 153t-50.5 108.5t-83.5 40.5q-59 0 -102.5 -42.5
t-71 -126.5t-40.5 -207q-8 -85 7.5 -152.5t50.5 -106.5t83 -39zM476 -24q-10 -7 -23.5 -2t-24.5 19l-131 178q-11 16 -13 30.5t8 21.5q12 11 26.5 6t27.5 -25l132 -178q11 -15 10.5 -28.5t-12.5 -21.5z" />
    <glyph glyph-name="R" unicode="R" horiz-adv-x="558" vert-adv-y="0" 
d="M68 0q-16 0 -23 12t-6 27l74 701q2 14 8.5 23t25.5 9q128 0 214 -19t127.5 -61.5t35.5 -114.5q-4 -47 -37 -86.5t-89.5 -68.5t-131 -45t-161.5 -16l4 52q98 0 176.5 23.5t126.5 62t53 84.5t-26.5 75t-98.5 44t-170 16l-71 -681q-2 -13 -6.5 -25t-24.5 -12zM435 0
q-7 0 -17.5 5.5t-19.5 17.5l-282 360l69 8l262 -332q11 -13 13.5 -23.5t0.5 -17.5q-1 -7 -9 -12.5t-17 -5.5z" />
    <glyph glyph-name="S" unicode="S" horiz-adv-x="501" vert-adv-y="0" 
d="M183 -6q-41 0 -75.5 13t-57.5 36.5t-31 53.5q-4 14 -1 26.5t16 16.5t24.5 -1.5t15.5 -20.5q5 -18 21 -34t43 -25.5t64 -9.5q42 0 80 16.5t64.5 50t31.5 85.5q5 59 -29.5 104.5t-113.5 90.5q-35 20 -66 43t-54 50t-34.5 57.5t-8.5 66.5q5 44 33 81.5t79.5 60.5t127.5 23
q70 0 111 -29.5t55 -71.5q5 -16 2.5 -28.5t-14.5 -16.5t-22.5 1t-15.5 17q-12 32 -40 52.5t-73 20.5q-85 0 -132.5 -32t-53.5 -83q-3 -33 14.5 -61.5t53 -54.5t83.5 -54q48 -27 85.5 -62.5t57 -80.5t13.5 -103q-10 -100 -79.5 -149t-173.5 -49z" />
    <glyph glyph-name="T" unicode="T" horiz-adv-x="590" vert-adv-y="0" 
d="M254 0q-16 0 -21.5 13t-4.5 31l74 697h59l-74 -701q-1 -14 -8 -27t-25 -13zM112 718q-18 0 -26 8.5t-8 18.5q0 11 6 19t24 8h444q18 0 25 -8t7 -19q0 -10 -5 -18.5t-23 -8.5h-444z" />
    <glyph glyph-name="U" unicode="U" horiz-adv-x="611" vert-adv-y="0" 
d="M260 -5q-64 0 -111 36t-70 98.5t-15 141.5l49 466q2 14 10.5 24.5t22.5 10.5t21.5 -11.5t5.5 -25.5l-49 -468q-7 -62 8.5 -111t49 -77.5t79.5 -28.5q50 0 93 29.5t71.5 81.5t35.5 117l50 466q1 11 7.5 19.5t22.5 8.5t23.5 -8.5t5.5 -22.5l-48 -463q-8 -81 -45.5 -145
t-93.5 -101t-123 -37z" />
    <glyph glyph-name="V" unicode="V" horiz-adv-x="498" vert-adv-y="0" 
d="M198 0q-16 0 -24 11t-10 22l-108 708q-2 14 4 22.5t22 8.5q20 0 26 -9.5t7 -18.5l80 -543l14 -133l-15 2l46 133l213 540q6 15 14.5 22t25.5 7q14 0 21 -10t-1 -28l-281 -704q-5 -13 -11 -21.5t-23 -8.5z" />
    <glyph glyph-name="W" unicode="W" horiz-adv-x="902" vert-adv-y="0" 
d="M197 0q-12 0 -21.5 9.5t-11.5 23.5l-108 708q-2 14 4 22.5t22 8.5q20 0 26 -9.5t7 -18.5l77 -519l17 -157l-15 2l53 155l202 519q4 10 12.5 19t22.5 9q21 0 27.5 -9t7.5 -19l77 -516l16 -166l-14 2l53 159l206 520q7 17 14 23t24 6q12 0 21 -9.5t1 -28.5l-283 -704
q-5 -13 -11 -21.5t-23 -8.5q-15 0 -22.5 9.5t-9.5 20.5l-83 554l-13 124l14 -1l-36 -119l-218 -557q-4 -10 -10.5 -20.5t-24.5 -10.5z" />
    <glyph glyph-name="X" unicode="X" horiz-adv-x="544" vert-adv-y="0" 
d="M14 7q-9 6 -11 17t5 21l245 372l8 1l220 339q9 14 23.5 15.5t24.5 -6.5q8 -6 9.5 -17.5t-7.5 -25.5l-239 -365h-7l-226 -343q-5 -8 -13.5 -12t-16.5 -2.5t-15 6.5zM449 4q-7 -4 -16.5 -3.5t-17 6t-12.5 17.5l-154 342l-162 363q-7 17 -4.5 27.5t12.5 14.5q10 5 25.5 0.5
t22.5 -21.5l152 -340l165 -368q6 -13 1.5 -23t-12.5 -15z" />
    <glyph glyph-name="Y" unicode="Y" horiz-adv-x="539" vert-adv-y="0" 
d="M74 770q17 6 27 -2.5t14 -19.5l186 -403l-40 -59l-202 442q-6 14 -3.5 25.5t18.5 16.5zM90 7q-9 6 -10 17t6 21l415 709q8 14 18.5 17t21.5 -2q13 -7 16 -19.5t-5 -26.5l-417 -709q-5 -9 -13 -12.5t-16.5 -1.5t-15.5 7z" />
    <glyph glyph-name="Z" unicode="Z" horiz-adv-x="565" vert-adv-y="0" 
d="M48 0q-14 0 -22.5 7t-10 18t5.5 21l467 697l16 -25h-380q-18 0 -25.5 7t-8.5 18t5.5 20t24.5 9h398q11 0 19 -6.5t10.5 -17.5t-5.5 -25l-464 -693l-15 25h378q18 0 24.5 -7t7.5 -18t-5 -20.5t-24 -9.5h-396z" />
    <glyph glyph-name="bracketleft" unicode="[" horiz-adv-x="386" vert-adv-y="0" 
d="M30 -356q-16 0 -23 9.5t-6 22.5l113 1064q2 14 10 23t25 9h163q17 0 25.5 -8.5t8.5 -18.5t-7.5 -18t-22.5 -8h-143l-109 -1022h134q17 0 24.5 -8t7.5 -18q2 -10 -5.5 -18.5t-22.5 -8.5h-172z" />
    <glyph glyph-name="backslash" unicode="\" horiz-adv-x="326" vert-adv-y="0" 
d="M62 772q10 0 19 -5.5t13 -18.5l270 -754q7 -19 -3.5 -29.5t-24.5 -10.5q-10 0 -19 6t-14 21l-270 754q-6 17 4.5 27t24.5 10z" />
    <glyph glyph-name="bracketright" unicode="]" horiz-adv-x="386" vert-adv-y="0" 
d="M36 -356q-17 0 -25.5 8.5t-9.5 18.5q0 10 8 18t23 8h141l110 1022h-133q-16 0 -25 8t-10 18t7 18.5t24 8.5h168q17 0 25 -9t6 -23l-113 -1064q-2 -14 -9 -23t-27 -9h-160z" />
    <glyph glyph-name="asciicircum" unicode="^" horiz-adv-x="488" vert-adv-y="0" 
d="M126 349q-14 -11 -25 -8.5t-19 9.5q-7 8 -7 19.5t11 20.5l158 132q12 11 25.5 9.5t20.5 -9.5l110 -131q9 -10 7.5 -22.5t-10.5 -20.5q-8 -7 -20 -7.5t-22 11.5l-116 139l50 -5z" />
    <glyph glyph-name="underscore" unicode="_" horiz-adv-x="520" vert-adv-y="0" 
d="M63 -95q-16 0 -25 7t-9 20q0 14 10 21t26 7h295q16 0 25 -7t9 -21q0 -13 -9.5 -20t-26.5 -7h-295z" />
    <glyph glyph-name="grave" unicode="`" horiz-adv-x="594" vert-adv-y="0" 
d="M314 549l-65 109q-7 13 -5 22.5t10 15.5t17 6q10 0 20 -5t16 -16l49 -114q4 -8 4.5 -15t-2.5 -11.5t-8 -7.5q-7 -4 -17.5 -0.5t-18.5 16.5z" />
    <glyph glyph-name="a" unicode="a" horiz-adv-x="418" vert-adv-y="0" 
d="M156 -1q-52 0 -83.5 31t-44 79t-7.5 100q8 69 33.5 116t63.5 71.5t82 24.5q26 0 56.5 -12t52.5 -37l-6 -55q-17 26 -48 37.5t-57 11.5q-43 0 -76 -42t-41 -118q-4 -39 2 -74t24.5 -57t49.5 -22q25 0 47 22.5t40.5 58t31.5 77t20 79.5l-17 -193q-10 -21 -23 -38.5t-29 -31
t-33.5 -21t-37.5 -7.5zM295 0q-12 0 -20.5 8.5t-7.5 24.5l37 351q2 16 12 24t21 8t20 -9t7 -27l-37 -347q-2 -16 -11.5 -24.5t-20.5 -8.5z" />
    <glyph glyph-name="b" unicode="b" horiz-adv-x="422" vert-adv-y="0" 
d="M57 0q-13 0 -22 8t-8 24l76 715q2 14 11 19.5t19 5.5q13 0 22.5 -8.5t7.5 -22.5l-76 -715q-2 -13 -11 -19.5t-19 -6.5zM182 -1q-27 0 -57 7.5t-53 32.5l6 55q12 -17 30 -26t38.5 -12t36.5 -3q44 0 77 38.5t41 114.5q4 39 -2.5 75.5t-24.5 60.5t-49 24q-21 0 -41.5 -21
t-38.5 -53t-31 -66.5t-21 -61.5l9 150q20 41 52 74t72 33q52 0 83.5 -33t44 -83t6.5 -103q-7 -68 -32.5 -113.5t-63.5 -67.5t-82 -22z" />
    <glyph glyph-name="c" unicode="c" horiz-adv-x="373" vert-adv-y="0" 
d="M156 -1q-52 0 -83.5 31t-44 79t-7.5 100q8 69 33.5 116t63.5 71.5t82 24.5q36 0 63 -18.5t44 -44.5q4 -7 1.5 -18t-13.5 -17q-12 -6 -21.5 -3t-14.5 10q-9 15 -24.5 25.5t-36.5 10.5q-43 0 -76 -42t-41 -118q-4 -39 2.5 -74t26 -57t52.5 -22q23 0 46 17.5t39 49.5
q5 9 16.5 12t22.5 -4q11 -6 14 -17t-2 -20q-22 -40 -57 -66t-85 -26z" />
    <glyph glyph-name="d" unicode="d" horiz-adv-x="430" vert-adv-y="0" 
d="M156 -1q-52 0 -83.5 31t-44 79t-7.5 100q8 69 33.5 116t63.5 71.5t82 24.5q26 0 56.5 -12t52.5 -37l-6 -55q-17 26 -48 37.5t-57 11.5q-43 0 -76 -42t-41 -118q-4 -39 2 -74t24.5 -57t49.5 -22q25 0 47 22.5t40.5 58t31.5 77t20 79.5l-17 -193q-10 -21 -23 -38.5t-29 -31
t-33.5 -21t-37.5 -7.5zM295 0q-12 0 -20.5 8.5t-7.5 24.5l74 707q2 17 12 24.5t21 7.5t19.5 -9t6.5 -26l-73 -704q-2 -16 -11.5 -24.5t-20.5 -8.5z" />
    <glyph glyph-name="e" unicode="e" horiz-adv-x="373" vert-adv-y="0" 
d="M156 -1q-39 0 -66.5 18t-44 48t-22.5 67.5t-2 76.5q8 69 33.5 116t63.5 71.5t82 24.5q29 0 54.5 -11.5t41.5 -30t16 -40.5q0 -23 -22.5 -50.5t-58.5 -55.5t-76.5 -54.5t-76.5 -49.5l-7 58q27 17 58.5 38t59.5 42.5t45.5 39t17.5 27.5q0 11 -13 21.5t-41 10.5
q-43 0 -76 -42t-41 -118q-4 -39 2.5 -74t26 -57t52.5 -22q23 0 46 17.5t39 49.5q5 9 16.5 12t22.5 -4q11 -6 14 -17t-2 -20q-22 -40 -57 -66t-85 -26z" />
    <glyph glyph-name="f" unicode="f" horiz-adv-x="274" vert-adv-y="0" 
d="M78 0q-16 0 -23.5 11.5t-6.5 21.5l62 593q8 73 43 109.5t85 36.5q36 0 63 -16.5t44 -42.5q4 -7 1.5 -17.5t-13.5 -17.5q-12 -6 -21.5 -3t-14.5 10q-9 16 -24.5 24.5t-36.5 8.5q-27 0 -44.5 -26.5t-22.5 -76.5l-62 -583q-1 -10 -7 -21t-22 -11zM27 362q-17 0 -25 8.5
t-8 19.5t6.5 18.5t26.5 7.5h205q17 0 24.5 -7.5t7.5 -18.5t-5.5 -19.5t-23.5 -8.5h-208z" />
    <glyph glyph-name="g" unicode="g" horiz-adv-x="418" vert-adv-y="0" 
d="M156 -1q-52 0 -83.5 31t-44 79t-7.5 100q8 69 33.5 116t63.5 71.5t82 24.5q26 0 56.5 -12t52.5 -37l-6 -55q-17 26 -48 37.5t-57 11.5q-43 0 -76 -42t-41 -118q-4 -39 2 -74t24.5 -57t49.5 -22q25 0 47 22.5t40.5 58t31.5 77t20 79.5l-17 -193q-10 -21 -23 -38.5t-29 -31
t-33.5 -21t-37.5 -7.5zM122 -356q-34 0 -67 13t-55 35q-11 12 -10 23.5t14 20.5q8 5 17 4t16 -8q32 -34 87 -34q50 0 83.5 42t40.5 114l56 530q2 16 12 24t21 8t20 -9t7 -27l-56 -526q-11 -97 -60.5 -153.5t-125.5 -56.5z" />
    <glyph glyph-name="h" unicode="h" horiz-adv-x="411" vert-adv-y="0" 
d="M53 0q-11 0 -19.5 7t-7.5 20l76 713q2 17 12.5 24.5t22.5 7.5q11 0 19 -7.5t6 -24.5l-76 -713q-2 -14 -11.5 -20.5t-21.5 -6.5zM284 0q-19 0 -23.5 11.5t-2.5 25.5l28 241q5 39 -5 61.5t-32 22.5q-37 0 -75 -52t-94 -175l11 133q35 71 74 112t88 41q51 0 76 -38.5
t17 -104.5l-30 -241q-1 -12 -5 -24.5t-27 -12.5z" />
    <glyph glyph-name="i" unicode="i" horiz-adv-x="191" vert-adv-y="0" 
d="M56 0q-12 0 -20.5 8.5t-6.5 24.5l36 351q2 16 12 24t22 8q11 0 19.5 -9t6.5 -27l-37 -347q-1 -16 -11 -24.5t-21 -8.5zM109 508q-17 0 -31.5 14t-14.5 33t13.5 32t32.5 13q18 0 31.5 -12.5t13.5 -32.5q0 -19 -13 -33t-32 -14z" />
    <glyph glyph-name="j" unicode="j" horiz-adv-x="191" vert-adv-y="0" 
d="M-116 -355q-35 0 -68 13t-55 35q-11 12 -10 24t14 20q8 6 17 4.5t16 -8.5q15 -15 38.5 -24.5t48.5 -9.5q50 0 83.5 42t41.5 114l55 529q2 16 12 24t22 8q11 0 19.5 -9t6.5 -27l-56 -525q-10 -97 -59.5 -153.5t-125.5 -56.5zM109 508q-17 0 -31.5 14t-14.5 33t13.5 32
t32.5 13q18 0 31.5 -12.5t13.5 -32.5q0 -19 -13 -33t-32 -14z" />
    <glyph glyph-name="k" unicode="k" horiz-adv-x="407" vert-adv-y="0" 
d="M53 0q-11 0 -19 8.5t-7 22.5l76 708q2 15 9.5 24t20.5 9q14 0 23 -7.5t7 -26.5l-76 -707q-2 -17 -11 -24t-23 -7zM301 0q-12 0 -20.5 7t-16.5 16l-183 196l45 39l191 -207q8 -8 9.5 -15.5t0.5 -14.5q-2 -10 -10 -15.5t-16 -5.5zM71 182l6 72l195 146q22 17 37 16
q11 0 18 -6t7 -17q-1 -7 -6 -15.5t-16 -16.5z" />
    <glyph glyph-name="l" unicode="l" horiz-adv-x="192" vert-adv-y="0" 
d="M53 0q-11 0 -19 8.5t-7 22.5l76 708q2 15 9.5 24t20.5 9q14 0 23 -7.5t7 -26.5l-76 -707q-2 -17 -11 -24t-23 -7z" />
    <glyph glyph-name="m" unicode="m" horiz-adv-x="609" vert-adv-y="0" 
d="M43 0q-19 0 -24 11.5t-4 25.5l40 347q2 16 11 24t27 8q15 0 19 -8.5t2 -23.5l-40 -347q-2 -12 -5 -24.5t-26 -12.5zM261 0q-19 0 -23 11.5t-3 25.5l29 241q5 39 -5.5 61.5t-31.5 22.5q-25 0 -47 -22.5t-47.5 -72.5t-63.5 -132l12 133q34 71 67 112t82 41q51 0 76 -38.5
t17 -104.5l-30 -241q-1 -12 -5 -24.5t-27 -12.5zM482 0q-19 0 -23 11.5t-3 25.5l29 241q5 39 -5.5 61.5t-31.5 22.5q-25 0 -47 -22.5t-47.5 -72.5t-63.5 -132l12 133q34 71 67 112t82 41q51 0 76 -38.5t17 -104.5l-30 -241q-1 -12 -5 -24.5t-27 -12.5z" />
    <glyph glyph-name="n" unicode="n" horiz-adv-x="400" vert-adv-y="0" 
d="M43 0q-19 0 -24 11.5t-4 25.5l40 347q2 16 11 24t27 8q15 0 19 -8.5t2 -23.5l-40 -347q-2 -12 -5 -24.5t-26 -12.5zM273 0q-19 0 -23 11.5t-3 25.5l29 241q5 39 -5.5 61.5t-31.5 22.5q-37 0 -75.5 -52t-94.5 -175l12 133q34 71 73 112t88 41q51 0 76 -38.5t17 -104.5
l-30 -241q-1 -12 -5 -24.5t-27 -12.5z" />
    <glyph glyph-name="o" unicode="o" horiz-adv-x="396" vert-adv-y="0" 
d="M156 -1q-52 0 -83.5 31t-44 79t-7.5 100q11 103 62 157.5t117 54.5q52 0 83.5 -31t44 -79.5t6.5 -101.5q-5 -50 -26.5 -98.5t-59 -80t-92.5 -31.5zM162 53q24 0 48 19.5t41.5 55t22.5 83.5q2 21 0.5 47t-9.5 51t-24 41t-43 16q-43 0 -76 -42t-41 -118q-4 -39 2.5 -74
t26 -57t52.5 -22z" />
    <glyph glyph-name="p" unicode="p" horiz-adv-x="419" vert-adv-y="0" 
d="M5 -356q-11 0 -19.5 8.5t-6.5 26.5l73 704q2 16 12 24.5t20 8.5q12 0 21 -8t7 -25l-74 -707q-1 -16 -11.5 -24t-21.5 -8zM179 -1q-26 0 -56 10t-53 35l6 61q17 -26 48.5 -39t56.5 -13q44 0 76.5 40.5t40.5 116.5q5 39 -1.5 74.5t-25 58.5t-49.5 23q-25 0 -47 -23
t-40 -59.5t-31.5 -78t-20.5 -79.5l17 192q10 21 23 39.5t29 33t34 22.5t37 8q52 0 83.5 -32t44 -81t7.5 -101q-7 -68 -33 -114.5t-64 -70t-82 -23.5z" />
    <glyph glyph-name="q" unicode="q" horiz-adv-x="418" vert-adv-y="0" 
d="M156 -1q-52 0 -83.5 31t-44 79t-7.5 100q8 69 33.5 116t63.5 71.5t82 24.5q26 0 56.5 -12t52.5 -37l-6 -55q-17 26 -48 37.5t-57 11.5q-43 0 -76 -42t-41 -118q-4 -39 2 -74t24.5 -57t49.5 -22q25 0 47 22.5t40.5 58t31.5 77t20 79.5l-17 -193q-10 -21 -23 -38.5t-29 -31
t-33.5 -21t-37.5 -7.5zM257 -356q-12 0 -20.5 8t-7.5 25l75 707q2 16 12 24t21 8t20 -9t7 -27l-68 -635l49 40q11 9 19 12t15 3q11 0 18.5 -6t7.5 -17q0 -8 -5.5 -18t-16.5 -19l-105 -87q-5 -4 -10.5 -6.5t-10.5 -2.5z" />
    <glyph glyph-name="r" unicode="r" horiz-adv-x="354" vert-adv-y="0" 
d="M43 0q-12 0 -20.5 8t-7.5 24l37 352q2 16 12.5 24t21.5 8t19.5 -9t6.5 -27l-37 -348q-2 -16 -11.5 -24t-20.5 -8zM310 301q-10 -6 -23 -3t-15 13q-4 20 -12 35.5t-24 15.5q-24 0 -49 -23t-54 -72.5t-66 -131.5l11 131q37 77 75 116t87 39q35 0 57.5 -23.5t30.5 -56.5
q4 -17 -2 -26t-16 -14z" />
    <glyph glyph-name="s" unicode="s" horiz-adv-x="354" vert-adv-y="0" 
d="M162 -1q-43 0 -76 13t-56 34q-14 13 -20 26.5t4 24.5q11 13 21.5 13.5t22.5 -10.5q18 -15 45 -28.5t61 -13.5q28 0 43 13.5t15 36.5q0 15 -8.5 28t-31.5 30t-69 44q-37 22 -56 46.5t-19 61.5q0 46 34.5 74.5t93.5 28.5q24 0 52 -8t58 -27q17 -10 24 -26.5t-1 -28.5
q-7 -12 -20 -11t-27 11q-15 11 -38.5 20.5t-55.5 9.5q-29 0 -45 -12t-16 -32q0 -19 13 -31.5t41 -28.5q54 -32 82.5 -54t38.5 -43t10 -50q0 -34 -15 -59t-41.5 -38.5t-63.5 -13.5z" />
    <glyph glyph-name="t" unicode="t" horiz-adv-x="333" vert-adv-y="0" 
d="M114 0q-11 0 -21 7.5t-9 21.5l67 621q2 12 11 18.5t19 6.5q12 0 21.5 -8t7.5 -24l-66 -616q-2 -14 -10.5 -20.5t-19.5 -6.5zM42 362q-18 0 -26 8.5t-8 19.5t6 18.5t24 7.5h241q18 0 25 -7.5t7 -18.5t-5 -19.5t-23 -8.5h-241z" />
    <glyph glyph-name="u" unicode="u" horiz-adv-x="399" vert-adv-y="0" 
d="M119 -1q-52 0 -76 40.5t-17 98.5l29 246q1 10 6 21t25 11t24 -11t2 -24l-26 -243q-4 -36 5 -58.5t31 -22.5q25 0 50.5 20t55.5 67.5t67 128.5l-11 -130q-37 -64 -76.5 -104t-88.5 -40zM271 0q-15 0 -19.5 8.5t-3.5 23.5l38 352q1 10 7 21t25 11t24 -11t3 -24l-37 -349
q-2 -16 -10.5 -24t-26.5 -8z" />
    <glyph glyph-name="v" unicode="v" horiz-adv-x="333" vert-adv-y="0" 
d="M87 25l-69 341q-4 24 4 37t24 13q9 0 17 -6.5t11 -19.5l55 -306l-10 3l134 303q8 15 16 20.5t17 5.5q11 0 18.5 -6t9.5 -17t-5 -26l-159 -344q-7 -14 -15 -18.5t-19 -4.5q-10 0 -18.5 5.5t-10.5 19.5z" />
    <glyph glyph-name="w" unicode="w" horiz-adv-x="573" vert-adv-y="0" 
d="M87 25l-69 341q-4 24 4 37t24 13q9 0 17 -6t9 -14l57 -312l-9 3l138 312q4 8 11.5 12.5t16.5 4.5t17 -6t9 -14l59 -312l-10 3l137 312q4 8 11.5 13t16.5 4q17 -2 25 -14t-2 -35l-159 -344q-7 -14 -15 -18.5t-19 -4.5q-10 0 -18.5 5.5t-10.5 19.5l-56 299l13 -2l-134 -299
q-7 -14 -15 -18.5t-19 -4.5q-10 0 -18.5 5.5t-10.5 19.5z" />
    <glyph glyph-name="x" unicode="x" horiz-adv-x="374" vert-adv-y="0" 
d="M27 0q-13 0 -19 8.5t-4 22t13 27.5l132 177l8 6l120 161q6 8 13 11t13 3q16 0 23 -8.5t6 -21t-11 -25.5l-131 -173l-8 -6l-121 -161q-8 -10 -15.5 -15.5t-18.5 -5.5zM264 0q-9 0 -16 5.5t-15 19.5l-87 159l-98 183q-8 15 -6 26t10.5 17t17.5 6t17 -6t13 -14l88 -164
l94 -174q13 -25 7.5 -41.5t-25.5 -16.5z" />
    <glyph glyph-name="y" unicode="y" horiz-adv-x="399" vert-adv-y="0" 
d="M118 -1q-52 0 -75.5 40.5t-17.5 98.5l27 243q1 10 8 22t24 13q18 1 23 -10.5t3 -24.5l-26 -243q-3 -32 6 -56.5t31 -24.5q25 0 50 22t54 71t66 130l-11 -141q-37 -63 -75 -101.5t-87 -38.5zM289 -146q-11 -97 -60.5 -153.5t-125.5 -56.5q-34 0 -67 13t-55 35
q-11 12 -10 23.5t14 20.5q8 5 17 4t16 -8q32 -34 87 -34q50 0 83.5 42t40.5 114l56 530q2 16 12 24t21 8t20 -9t7 -27z" />
    <glyph glyph-name="z" unicode="z" horiz-adv-x="388" vert-adv-y="0" 
d="M45 0q-11 0 -19 8.5t-10 21t7 22.5l255 333l14 -29h-206q-18 0 -26 10t-8 20q0 11 6 20.5t24 9.5h232q12 0 20 -7.5t9.5 -18.5t-7.5 -23l-259 -336l-14 28h213q17 0 24.5 -9t7.5 -20t-5.5 -20.5t-23.5 -9.5h-234z" />
    <glyph glyph-name="braceleft" unicode="{" horiz-adv-x="440" vert-adv-y="0" 
d="M196 -349q-21 16 -47 40.5t-46 54.5t-26 64q-4 29 3 66t18.5 75t22 73t12.5 60q3 50 -42 108q-10 14 -19.5 25t-9.5 27q1 14 12 22.5t26 18.5q29 22 45.5 44t20.5 48q4 22 1 57.5t-6.5 76.5t-2 78.5t14.5 63.5q15 30 45 53t63 38.5t56 21.5q20 7 39 1t22 -20
q4 -12 -7 -24t-25 -16q-40 -10 -80.5 -25.5t-57.5 -47.5q-13 -24 -13.5 -59.5t4.5 -74t9 -73t1 -58.5q-6 -39 -26.5 -69.5t-68.5 -65.5q38 -47 51.5 -83.5t10.5 -75.5q-1 -24 -11.5 -57.5t-23 -70t-20 -72t-3.5 -63.5q5 -32 19 -52t35 -35t44 -32q14 -8 18 -23.5t-6 -23.5
q-9 -9 -23.5 -7.5t-28.5 12.5z" />
    <glyph glyph-name="bar" unicode="|" horiz-adv-x="240" vert-adv-y="0" 
d="M44 -356q-16 0 -24 9.5t-7 22.5l120 1122q2 17 12.5 25.5t20.5 8.5q12 0 20.5 -9t5.5 -29l-118 -1121q-1 -9 -5.5 -19t-24.5 -10z" />
    <glyph glyph-name="braceright" unicode="}" horiz-adv-x="440" vert-adv-y="0" 
d="M62 -356q-19 -7 -38.5 -0.5t-22.5 19.5q-2 12 8 24t25 16q40 10 80.5 26t56.5 48q13 24 14 64.5t-3.5 86t-8.5 86t-1 63.5q7 39 27.5 70t67.5 66q-36 47 -50.5 83.5t-12.5 75.5q2 24 12.5 51.5t22 57t19 59.5t3.5 58q-4 32 -18.5 52t-35 35t-44.5 31q-13 9 -17 24.5
t5 23.5q9 9 23.5 7.5t28.5 -12.5q22 -16 47.5 -40t46 -54.5t25.5 -64.5q5 -29 -2 -60.5t-18.5 -62.5t-22 -60t-12.5 -55q-1 -25 9.5 -52t32.5 -56q11 -14 21 -25t9 -26q0 -14 -11.5 -22t-26.5 -19q-28 -22 -45 -44t-22 -48q-3 -17 -1.5 -47.5t4 -68t4.5 -75t-1 -70
t-13 -53.5q-15 -29 -45.5 -52t-63.5 -38t-56 -22z" />
    <glyph glyph-name="asciitilde" unicode="~" horiz-adv-x="594" vert-adv-y="1260" 
d="M211 510q-7 8 -5.5 19.5t9.5 21.5q15 20 40.5 31.5t53.5 11.5q20 0 38 -9t34 -18.5t28 -9.5q29 0 48 25q8 11 21 12.5t21 -6.5q9 -9 6.5 -20t-10.5 -22q-16 -19 -41 -30.5t-52 -11.5q-18 0 -36.5 9.5t-34.5 18.5t-30 9q-16 0 -27.5 -7t-20.5 -18t-21.5 -12.5t-20.5 6.5z
" />
    <glyph glyph-name="uni00A0" unicode="&#xa0;" horiz-adv-x="285" vert-adv-y="1260" 
 />
    <glyph glyph-name="exclamdown" unicode="&#xa1;" horiz-adv-x="270" vert-adv-y="0" 
d="M90 -1q-10 0 -18 6t-7 19l55 507q2 17 12.5 25t20.5 7q11 -1 20.5 -9t7.5 -23l-55 -507q-1 -13 -12.5 -19t-23.5 -6zM171 677q-20 0 -33.5 13.5t-13.5 32.5q0 21 13.5 35t33.5 14t34 -14t14 -35q0 -19 -14 -32.5t-34 -13.5z" />
    <glyph glyph-name="cent" unicode="&#xa2;" horiz-adv-x="373" vert-adv-y="1260" 
d="M156 -1q-52 0 -83.5 31t-44 79t-7.5 100q8 69 33.5 116t63.5 71.5t82 24.5q36 0 63 -18.5t44 -44.5q4 -7 1.5 -18t-13.5 -17q-12 -6 -21.5 -3t-14.5 10q-9 15 -24.5 25.5t-36.5 10.5q-43 0 -76 -42t-41 -118q-4 -39 2.5 -74t26 -57t52.5 -22q23 0 46 17.5t39 49.5
q5 9 16.5 12t22.5 -4q11 -6 14 -17t-2 -20q-22 -40 -57 -66t-85 -26zM140 -70q-10 0 -18 6t-7 19l55 507q2 17 12.5 25t20.5 7q11 -1 20 -9t7 -23l-54 -507q-2 -13 -13 -19t-23 -6z" />
    <glyph glyph-name="sterling" unicode="&#xa3;" horiz-adv-x="561" vert-adv-y="1260" 
d="M108 390q0 11 6 18.5t24 7.5h253q18 0 25 -7.5t7 -18.5t-5.5 -19.5t-23.5 -8.5h-253q-17 0 -25 8.5t-8 19.5zM87 0q-15 0 -22 6t-5.5 16.5t9.5 22.5q2 3 20.5 24.5t44.5 55t51 73t40 79.5q11 30 12 68t-5 70t-16 44q-29 37 -49 70t-30 62t-10 54q0 33 17 60t51 46
q20 11 42.5 16t46.5 5q56 0 113.5 -22.5t94.5 -54.5q20 -17 19.5 -29t-8.5 -21q-7 -8 -21.5 -8t-35.5 18q-31 26 -77.5 41.5t-88.5 15.5q-17 0 -33 -3t-28 -10q-27 -16 -27 -48q0 -34 25 -78t53 -84q14 -19 22 -48.5t9 -63t-3 -66t-14 -58.5q-18 -48 -47 -94t-60 -86.5
t-56 -72.5h-34zM91 0l22 59h297q18 0 24.5 -9t7.5 -20t-5 -20.5t-24 -9.5h-322z" />
    <glyph glyph-name="yen" unicode="&#xa5;" horiz-adv-x="539" vert-adv-y="1260" 
d="M74 770q17 6 27 -2.5t14 -19.5l186 -403l-40 -59l-202 442q-6 14 -3.5 25.5t18.5 16.5zM90 7q-9 6 -10 17t6 21l415 709q8 14 18.5 17t21.5 -2q13 -7 16 -19.5t-5 -26.5l-417 -709q-5 -9 -13 -12.5t-16.5 -1.5t-15.5 7zM87 113q-16 0 -24 8t-8 18t8 18.5t24 8.5h269
q17 0 24.5 -8t7.5 -18t-7.5 -18.5t-24.5 -8.5h-269zM107 292q-16 0 -24 8t-8 18t8 19t24 9h270q16 0 24 -8t8 -18t-8 -19t-24 -9h-270z" />
    <glyph glyph-name="brokenbar" unicode="&#xa6;" horiz-adv-x="240" vert-adv-y="0" 
d="M126 160l-52 -487q-1 -9 -5.5 -19t-24.5 -10q-16 0 -24 9.5t-7 22.5l52 484q2 16 12.5 24t22.5 8q11 0 19 -8t7 -24zM192 794l-51 -478q-1 -15 -11 -23.5t-22 -8.5q-11 -1 -19.5 8t-7.5 24l52 482q2 17 12.5 25.5t20.5 8.5q12 0 20.5 -9t5.5 -29z" />
    <glyph glyph-name="copyright" unicode="&#xa9;" horiz-adv-x="1015" vert-adv-y="1260" 
d="M494 -95q-96 0 -179.5 36t-147.5 100t-100 147.5t-36 179.5t36 180t100 148t147.5 100t179.5 36t180 -36t148 -100t100 -148t36 -180t-36 -179.5t-100 -147.5t-148 -100t-180 -36zM494 -36q83 0 156.5 31.5t129 87.5t87 129t31.5 157q0 83 -31.5 156t-87.5 128.5t-129 87
t-156 31.5t-156 -31.5t-129 -87t-87.5 -128.5t-31.5 -156q0 -84 31.5 -157t87 -129t129 -87.5t156.5 -31.5zM468 139q-51 0 -83 31t-44 79t-7 100q5 51 22 98.5t42.5 85t56.5 59t64 21.5q37 0 64 -18t43 -45q5 -6 2 -17t-14 -17q-11 -7 -21 -3.5t-14 10.5q-9 15 -25 25
t-36 10q-22 0 -42.5 -18.5t-37.5 -49.5t-29 -68.5t-16 -75.5q-4 -39 2.5 -73.5t26 -56.5t52.5 -22q23 0 46 17t40 49q4 9 15.5 12t23.5 -4q11 -6 14 -16.5t-2 -19.5q-22 -40 -57.5 -66.5t-85.5 -26.5z" />
    <glyph glyph-name="registered" unicode="&#xae;" horiz-adv-x="699" vert-adv-y="1260" 
d="M304 485q-11 0 -17 6t-5 15l25 231q1 8 4.5 11.5t11.5 3.5q9 0 21 -4.5t11 -14.5l-24 -229q-1 -7 -7 -13t-20 -6zM431 485q-4 0 -11.5 2t-10.5 7l-105 138l63 -4l83 -110q4 -4 3.5 -11t-3.5 -10q-6 -12 -19 -12zM321 612l1 47q27 0 48.5 1t34.5 5t14 13q2 14 -26 19.5
t-71 5.5l1 49q48 0 81 -7.5t49.5 -23.5t13.5 -44q-3 -26 -16.5 -40t-34.5 -19t-45.5 -5.5t-49.5 -0.5zM374 343q-57 0 -106.5 21.5t-87 59t-58.5 87t-21 106.5q0 56 21 105.5t58.5 87t87 59t106.5 21.5t106.5 -21.5t87 -59t58.5 -87t21 -105.5q0 -57 -21 -106.5t-58.5 -87
t-87 -59t-106.5 -21.5zM374 400q60 0 108.5 29.5t77.5 78.5t29 109q0 59 -29 108t-77.5 78t-108.5 29t-109 -29t-78 -78t-29 -108q0 -60 29 -109t78 -78.5t109 -29.5z" />
    <glyph glyph-name="degree" unicode="&#xb0;" horiz-adv-x="378" vert-adv-y="0" 
d="M198 480q-36 0 -58.5 22t-31.5 56.5t-6 71.5q8 73 44.5 110t82.5 37q37 0 59.5 -21.5t32 -55t5.5 -70.5q-4 -36 -19.5 -70.5t-42 -57t-66.5 -22.5zM207 535q21 0 40 24.5t24 71.5q2 17 -0.5 38t-12.5 37t-32 16q-27 0 -45.5 -22.5t-23.5 -72.5q-4 -36 7.5 -64t42.5 -28z
" />
    <glyph glyph-name="plusminus" unicode="&#xb1;" vert-adv-y="0" 
d="M236 221q-10 0 -17 10.5t-5 27.5l14 157q1 14 11 19.5t18 5.5q11 0 18 -10.5t5 -26.5l-15 -157q-1 -14 -10.5 -20t-18.5 -6zM112 305q-16 0 -24 8.5t-8 19.5q0 10 8 18t24 8h269q17 0 24.5 -8t7.5 -18t-7.5 -19t-24.5 -9h-269zM99 153q-16 0 -24 8.5t-8 19.5q0 10 8 18
t24 8h269q17 0 24.5 -8t7.5 -18t-7.5 -19t-24.5 -9h-269z" />
    <glyph glyph-name="periodcentered" unicode="&#xb7;" horiz-adv-x="252" vert-adv-y="0" 
d="M125 229q-21 0 -34.5 14.5t-13.5 34.5t13.5 33t34.5 13q20 0 33.5 -13t13.5 -33t-13.5 -34.5t-33.5 -14.5z" />
    <glyph glyph-name="questiondown" unicode="&#xbf;" horiz-adv-x="555" vert-adv-y="0" 
d="M249 -1q-59 0 -102 22t-66.5 63t-23.5 99q0 83 32.5 139t87.5 85.5t122 34.5l10 89q2 20 12.5 26.5t21.5 6.5t19.5 -9.5t6.5 -22.5l-13 -120q-1 -10 -9 -17t-18 -7q-45 0 -84 -13t-68 -38.5t-45 -64t-16 -88.5q0 -61 36 -96t97 -35q51 0 82.5 21.5t47.5 54.5t19 67
q2 20 11.5 26.5t21.5 6.5q10 0 18.5 -9.5t6.5 -29.5q-5 -56 -30.5 -99.5t-69.5 -67.5t-107 -24zM358 677q-21 0 -34.5 13.5t-13.5 32.5q0 21 13.5 35t34.5 14q20 0 33.5 -14t13.5 -35q0 -19 -13.5 -32.5t-33.5 -13.5z" />
    <glyph glyph-name="multiply" unicode="&#xd7;" vert-adv-y="0" 
d="M119 110q-13 -13 -25 -11.5t-20 9.5q-7 8 -6.5 18t10.5 20l283 279q13 12 24.5 11.5t19.5 -8.5q8 -7 7.5 -17.5t-13.5 -22.5zM340 110l-241 278q-9 11 -7 23.5t11 19.5q8 7 18.5 4.5t22.5 -16.5l240 -275q11 -13 8 -23t-13 -18q-8 -6 -18 -5.5t-21 12.5z" />
    <glyph glyph-name="divide" unicode="&#xf7;" vert-adv-y="0" 
d="M234 103q-16 0 -26.5 12t-10.5 28q0 14 10 26t27 12q15 0 27.5 -11t12.5 -27t-12 -28t-28 -12zM115 244q-16 0 -24 8.5t-8 18.5t8 18t24 8h270q16 0 24 -8t8 -18t-8 -18.5t-24 -8.5h-270zM264 360q-16 0 -27 12.5t-11 26.5t11 26t27 12q15 0 27 -11.5t12 -26.5t-12 -27
t-27 -12z" />
    <glyph glyph-name="tilde" unicode="&#x2dc;" horiz-adv-x="594" vert-adv-y="0" 
d="M211 510q-7 8 -5.5 19.5t9.5 21.5q15 20 40.5 31.5t53.5 11.5q20 0 38 -9t34 -18.5t28 -9.5q29 0 48 25q8 11 21 12.5t21 -6.5q9 -9 6.5 -20t-10.5 -22q-16 -19 -41 -30.5t-52 -11.5q-18 0 -36.5 9.5t-34.5 18.5t-30 9q-16 0 -27.5 -7t-20.5 -18t-21.5 -12.5t-20.5 6.5z
" />
    <glyph glyph-name="endash" unicode="&#x2013;" horiz-adv-x="461" vert-adv-y="0" 
d="M95 210q-16 0 -25 7.5t-9 20.5t10 20t26 7h236q16 0 25 -7t9 -20t-10 -20.5t-27 -7.5h-235z" />
    <glyph glyph-name="emdash" unicode="&#x2014;" horiz-adv-x="639" vert-adv-y="0" 
d="M95 210q-16 0 -25 7.5t-9 20.5t10 20t26 7h414q16 0 25 -7t9 -20t-10 -20.5t-27 -7.5h-413z" />
    <glyph glyph-name="quoteleft" unicode="&#x2018;" horiz-adv-x="216" vert-adv-y="1260" 
d="M131 594q-13 0 -22 8.5t-8 24.5l13 119q2 13 11.5 19.5t19.5 6.5q13 0 22 -9t8 -26l-12 -118q-1 -13 -11 -19t-21 -6z" />
    <glyph glyph-name="quoteright" unicode="&#x2019;" horiz-adv-x="216" vert-adv-y="1260" 
d="M131 594q-13 0 -22 8.5t-8 24.5l13 119q2 13 11.5 19.5t19.5 6.5q13 0 22 -9t8 -26l-12 -118q-1 -13 -11 -19t-21 -6z" />
    <glyph glyph-name="quotedblleft" unicode="&#x201c;" horiz-adv-x="347" vert-adv-y="1260" 
d="M131 594q-12 0 -21 8.5t-8 24.5l12 114q2 16 12.5 23.5t20.5 7.5q12 0 21.5 -9t7.5 -26l-13 -114q-2 -14 -11.5 -21.5t-20.5 -7.5zM260 594q-12 0 -21.5 8.5t-8.5 24.5l14 119q2 13 11 19.5t19 6.5q13 0 22 -9t8 -26l-11 -112q-1 -17 -11.5 -24t-21.5 -7z" />
    <glyph glyph-name="quotedblright" unicode="&#x201d;" horiz-adv-x="347" vert-adv-y="1260" 
d="M131 594q-12 0 -21 8.5t-8 24.5l12 114q2 16 12.5 23.5t20.5 7.5q12 0 21.5 -9t7.5 -26l-13 -114q-2 -14 -11.5 -21.5t-20.5 -7.5zM260 594q-12 0 -21.5 8.5t-8.5 24.5l14 119q2 13 11 19.5t19 6.5q13 0 22 -9t8 -26l-11 -112q-1 -17 -11.5 -24t-21.5 -7z" />
    <glyph glyph-name="bullet" unicode="&#x2022;" horiz-adv-x="334" vert-adv-y="0" 
d="M169 330q-25 0 -45 13t-31.5 34.5t-11.5 44.5q0 24 12 44t32 32.5t44 12.5t44.5 -12.5t33 -32.5t12.5 -44t-12.5 -45t-33 -34t-44.5 -13z" />
    <glyph glyph-name="ellipsis" unicode="&#x2026;" horiz-adv-x="582" vert-adv-y="0" 
d="M88 -1q-20 0 -34 14t-14 35q0 20 14 33t34 13t33.5 -13t13.5 -33q0 -21 -13.5 -35t-33.5 -14zM254 -1q-20 0 -33.5 14t-13.5 35q0 20 13.5 33t33.5 13q21 0 34.5 -13t13.5 -33q0 -21 -13.5 -35t-34.5 -14zM421 -1q-21 0 -34.5 14t-13.5 35q0 20 13.5 33t34.5 13
q20 0 33.5 -13t13.5 -33q0 -21 -13.5 -35t-33.5 -14z" />
    <glyph glyph-name="Euro" unicode="&#x20ac;" horiz-adv-x="665" vert-adv-y="1260" 
d="M341 -6q-82 0 -132.5 50t-65 142t9.5 218q22 116 65.5 200t103 129t129.5 45q47 0 80 -11.5t56.5 -28t39.5 -31.5q8 -7 12 -19t-7 -26q-11 -13 -25.5 -10t-23.5 10q-12 9 -31.5 23.5t-43.5 26t-53 11.5q-57 0 -105.5 -40t-83.5 -113t-53 -173q-20 -107 -11.5 -185.5
t42.5 -120.5t92 -42q48 0 85.5 19.5t64 49.5t41.5 59q11 20 22 29t26 1t14.5 -21.5t-12.5 -36.5q-18 -37 -53 -72.5t-82 -59t-101 -23.5zM44 236q-16 0 -24 8.5t-8 18.5t8 18.5t24 8.5h270q16 0 24 -8t8 -18t-8 -19t-24 -9h-270zM64 416q-16 0 -24 8t-8 18t8 18.5t24 8.5
h270q16 0 24 -8t8 -18t-8 -18.5t-24 -8.5h-270z" />
    <glyph glyph-name="trademark" unicode="&#x2122;" horiz-adv-x="946" vert-adv-y="1260" 
d="M270 791l-37 -347q-1 -9 -6.5 -18.5t-22.5 -9.5q-16 0 -24 11t-7 23l36 341h61zM354 772h-220q-15 0 -23.5 9t-9.5 22q-1 14 6 23t22 9h220q14 0 22.5 -9t9.5 -23q2 -13 -5.5 -22t-21.5 -9zM567 754l-143 -313q-6 -14 -14 -19.5t-16 -5.5q-11 0 -19 7t-10 18t2 21
l158 347q6 14 12.5 20.5t19.5 6.5zM650 475l-24 -59q-15 0 -21.5 8.5t-9.5 19.5l-59 310l21 82q15 0 22.5 -8t8.5 -18zM625 416l-13 69l165 330q5 9 12 15t19 6l9 -82l-160 -318q-4 -8 -11 -14t-21 -6zM840 802l55 -353q2 -13 -5.5 -23t-21.5 -10q-15 0 -23 9t-10 21
l-47 308l20 82q12 0 21.5 -9.5t10.5 -24.5z" />
    <glyph glyph-name="minus" unicode="&#x2212;" vert-adv-y="0" 
d="M115 244q-16 0 -24 8.5t-8 18.5t8 18t24 8h270q16 0 24 -8t8 -18t-8 -18.5t-24 -8.5h-270z" />
    <glyph glyph-name="infinity" unicode="&#x221e;" horiz-adv-x="833" vert-adv-y="0" 
d="M169 95q-49 0 -74 27t-31.5 67t1.5 79q18 80 61.5 120.5t112.5 40.5q42 0 84 -30t82 -89l43 -63q33 -49 65 -73.5t62 -24.5q38 0 64 26.5t39 78.5t-1.5 86.5t-50.5 34.5q-29 0 -61.5 -17.5t-66 -45.5t-67.5 -61l-33 44q38 39 76.5 69t79 47.5t82.5 17.5q48 0 73.5 -27
t32 -67t-2.5 -80q-18 -79 -61.5 -119.5t-112.5 -40.5q-41 0 -83 30t-83 89l-43 63q-33 49 -64.5 73.5t-62.5 24.5q-38 0 -63.5 -26t-39.5 -79q-13 -52 2 -86.5t50 -34.5q29 0 61.5 17.5t66.5 46t67 60.5l33 -44q-37 -38 -76 -68.5t-79 -48t-82 -17.5z" />
    <glyph glyph-name="approxequal" unicode="&#x2248;" vert-adv-y="0" 
d="M112 157q-14 -5 -24.5 -2t-15.5 15q-4 11 2 20.5t19 15.5q16 6 38 13t45 7q25 0 47 -8.5t43.5 -17t43.5 -8.5q12 0 27 5.5t28 10.5q14 5 24.5 1.5t14.5 -14.5q5 -12 -0.5 -21.5t-19.5 -14.5q-16 -6 -38 -13t-45 -7t-44.5 8t-43.5 16.5t-47 8.5q-11 0 -26 -5t-28 -10z
M133 336q-14 -5 -24 -1.5t-15 14.5q-4 12 1.5 21.5t18.5 14.5q16 6 38 13t45 7q25 0 47 -8t43.5 -16.5t43.5 -8.5q12 0 27 5t28 10q14 5 24.5 2t14.5 -15q5 -11 -0.5 -20.5t-19.5 -14.5q-16 -7 -38 -14t-45 -7q-22 0 -44 8.5l-44 17t-46 8.5q-12 0 -26.5 -5.5t-28.5 -10.5z
" />
    <glyph glyph-name="notequal" unicode="&#x2260;" vert-adv-y="0" 
d="M102 153q-16 0 -24 8t-8 18t8 19t24 9h270q16 0 24 -8t8 -18t-8 -19t-24 -9h-270zM122 333q-16 0 -24 8t-8 18t8 18.5t24 8.5h270q16 0 24 -8t8 -18t-8 -18.5t-24 -8.5h-270zM182 106q-8 -14 -19 -17.5t-19 0.5q-10 5 -14.5 15.5t3.5 26.5l165 299q7 10 13.5 14t15.5 4
q8 0 15 -5.5t8.5 -16t-7.5 -24.5z" />
    <glyph glyph-name="lessequal" unicode="&#x2264;" vert-adv-y="0" 
d="M99 153q-16 0 -24 8t-8 18t8 19t24 9h269q17 0 24.5 -8t7.5 -18q0 -11 -7.5 -19.5t-24.5 -8.5h-269zM106 278q-16 0 -24 8t-8 18q0 8 3.5 14t11.5 10l269 138q15 8 26 7.5t18 -8.5q7 -10 4.5 -22.5t-16.5 -19.5l-209 -108l-4 16h198q17 0 24.5 -8t7.5 -18t-7.5 -18.5
t-24.5 -8.5h-269z" />
    <glyph glyph-name="greaterequal" unicode="&#x2265;" vert-adv-y="0" 
d="M99 153q-16 0 -24 8t-8 18t8 19t24 9h269q17 0 24.5 -8t7.5 -18q0 -11 -7.5 -19.5t-24.5 -8.5h-269zM106 278q-16 0 -24 8t-8 18t8 18.5t24 8.5h217l-6 -19l-173 111q-13 9 -16 20.5t4 21.5q7 8 18.5 9t25.5 -8l221 -140q5 -4 7.5 -10t2.5 -11q0 -10 -7.5 -18.5
t-24.5 -8.5h-269z" />
    </font>
</defs>
</svg>
